<svg width="1919" height="968" viewBox="0 0 1919 968" fill="none" xmlns="http://www.w3.org/2000/svg">
<g clip-path="url(#clip0_2381_810)">
<rect x="-0.110596" width="1920" height="969" fill="#2A56C9"/>
<mask id="mask0_2381_810" style="mask-type:alpha" maskUnits="userSpaceOnUse" x="-1" y="0" width="1921" height="972">
<rect width="1920" height="972" transform="matrix(-1 0 0 1 1919.89 0)" fill="#473987"/>
</mask>
<g mask="url(#mask0_2381_810)">
<rect x="1458.26" y="1365.49" width="1324.36" height="411.412" transform="rotate(-129.849 1458.26 1365.49)" fill="url(#paint0_linear_2381_810)"/>
<rect x="1884.82" y="1234.15" width="1353.06" height="304.875" transform="rotate(-129.849 1884.82 1234.15)" fill="url(#paint1_linear_2381_810)"/>
<rect x="241.133" y="-265.854" width="1284.99" height="425.231" transform="rotate(50.1514 241.133 -265.854)" fill="url(#paint2_linear_2381_810)"/>
<rect x="-196.045" y="-125.661" width="1654.93" height="304.875" transform="rotate(50.1514 -196.045 -125.661)" fill="url(#paint3_linear_2381_810)"/>
</g>
</g>
<defs>
<linearGradient id="paint0_linear_2381_810" x1="1508.13" y1="1570.95" x2="2844.01" y2="1536.52" gradientUnits="userSpaceOnUse">
<stop stop-color="#8292FD" stop-opacity="0.7"/>
<stop offset="0.471953" stop-color="#586BF3" stop-opacity="0"/>
</linearGradient>
<linearGradient id="paint1_linear_2381_810" x1="1935.78" y1="1386.41" x2="3299.79" y2="1337.93" gradientUnits="userSpaceOnUse">
<stop stop-color="#8292FD" stop-opacity="0.7"/>
<stop offset="0.469363" stop-color="#586BF3" stop-opacity="0"/>
</linearGradient>
<linearGradient id="paint2_linear_2381_810" x1="289.528" y1="-53.4907" x2="1585.79" y2="-84.8579" gradientUnits="userSpaceOnUse">
<stop stop-color="#8292FD" stop-opacity="0.7"/>
<stop offset="0.471953" stop-color="#586BF3" stop-opacity="0"/>
</linearGradient>
<linearGradient id="paint3_linear_2381_810" x1="-133.719" y1="26.5966" x2="1533.56" y2="-45.8753" gradientUnits="userSpaceOnUse">
<stop stop-color="#8292FD" stop-opacity="0.7"/>
<stop offset="0.469363" stop-color="#586BF3" stop-opacity="0"/>
</linearGradient>
<clipPath id="clip0_2381_810">
<rect width="1919" height="968" fill="white"/>
</clipPath>
</defs>
</svg>
